<svg width="87" height="94" viewBox="0 0 87 94" fill="none" xmlns="http://www.w3.org/2000/svg">
<path d="M87 20.5625V0H57.3407V32.3125H51.4088V49.9375H25.7053V67.5625H0V94H80.0801V32.3125H60.3066V20.5625H87ZM60.3066 2.9375H84.0341V17.625H60.3066V2.9375ZM28.6713 52.875H51.4107V57.7714H28.6713V52.875ZM2.96593 70.5H25.7053V75.3964H2.96593V70.5ZM77.1142 91.0625H2.96593V78.3339H25.7053V84.6991H28.6713V60.7089H51.4107V70.9902H54.3766V43.0839H77.1142V91.0625ZM77.1142 35.25V40.1464H54.3748V35.25H77.1142Z" fill="#CDA274"/>
<path d="M79.5852 5.875H72.6653V8.8125H79.5852V5.875Z" fill="#CDA274"/>
<path d="M79.585 11.75H64.7554V14.6875H79.585V11.75Z" fill="#CDA274"/>
<path d="M32.1303 10.7714V13.7089H40.4145L3.39966 50.3671L5.49805 52.4454L42.511 15.7854V22.0312H45.4769V10.7714H32.1303Z" fill="#CDA274"/>
<path d="M9.39072 81.2714H5.43677V84.2089H9.39072V81.2714Z" fill="#CDA274"/>
<path d="M23.2325 81.2714H19.2786V84.2089H23.2325V81.2714Z" fill="#CDA274"/>
<path d="M35.0963 63.6464H31.1423V66.5839H35.0963V63.6464Z" fill="#CDA274"/>
<path d="M48.9378 63.6464H44.9839V66.5839H48.9378V63.6464Z" fill="#CDA274"/>
<path d="M60.8016 46.0215H56.8477V48.959H60.8016V46.0215Z" fill="#CDA274"/>
<path d="M74.6412 46.0215H70.6873V48.959H74.6412V46.0215Z" fill="#CDA274"/>
</svg>
