<svg width="92" height="92" viewBox="0 0 92 92" fill="none" xmlns="http://www.w3.org/2000/svg">
<path d="M92 89.0322H89.0322V92H92V89.0322Z" fill="#CDA274"/>
<path d="M71.2258 14.8387V2.96774H47.4839V0H44.5161V2.96774H20.7742V35.0305L11.871 29.8907V29.6774H11.5037L11.1828 29.4919L11.0752 29.6774H0V50.4516C0 53.7254 2.66169 56.3871 5.93548 56.3871H20.7742V62.3226H33.8026L28.4606 89.0323H0V92H86.0645V89.0323H63.5394L58.1974 62.3226H71.2258V38.5806H83.0968V35.6129H80.5445L83.2303 24.8734L77.7289 17.9975C83.299 18.9731 87.5484 23.8328 87.5484 29.6774H90.5161C90.5161 24.8215 88.1605 20.5145 84.5417 17.8065H92V14.8387H71.2258ZM8.90323 50.4516C8.90323 52.0876 7.57145 53.4194 5.93548 53.4194C4.29952 53.4194 2.96774 52.0876 2.96774 50.4516V32.6452H8.90323V50.4516ZM19.8709 38.9794L22.8386 44.1173L13.2491 49.6559L19.1827 39.3764L19.8709 38.9794ZM11.871 34.2366L12.2698 33.5448L17.4077 36.5125L11.871 46.1057V34.2366ZM12.663 53.4194L22.9444 47.4839H23.7419V53.4194H12.663ZM44.5161 89.0323H31.4877L36.8297 62.3226H44.5161V89.0323ZM60.5123 89.0323H47.4839V62.3226H55.1703L60.5123 89.0323ZM68.1245 24.8734L70.8103 35.6129H68.2581V59.3548H23.7419V56.3871H26.7097V45.31L26.8933 45.2024L26.7097 44.8852V44.5161H26.4964L23.7419 39.7455V5.93548H68.2581V14.8387H59.3548V17.8065H66.8131C63.1944 20.5145 60.8387 24.8215 60.8387 29.6774H63.8065C63.8065 23.8328 68.0559 18.9731 73.626 17.9956L68.1245 24.8734ZM79.9955 25.5801L77.4877 35.6129H73.8671L71.3594 25.5782L74.1936 22.0355V28.1935H77.1613V22.0373L79.9955 25.5801Z" fill="#CDA274"/>
<path d="M32.6451 11.8709H29.6774V14.8387H32.6451V11.8709Z" fill="#CDA274"/>
<path d="M62.3225 50.4516H59.3548V53.4193H62.3225V50.4516Z" fill="#CDA274"/>
<path d="M59.3549 32.6451C59.3549 25.2814 53.3637 19.2903 46 19.2903C43.5999 19.2903 41.3499 19.9357 39.4005 21.0486L35.3291 15.4507L32.929 17.1961L37.0059 22.8015C34.3331 25.2443 32.6452 28.7462 32.6452 32.6451C32.6452 40.0088 38.6363 45.9999 46 45.9999C48.4002 45.9999 50.6501 45.3545 52.5995 44.2416L56.6709 49.8395L59.0711 48.0941L54.9941 42.4887C57.667 40.0459 59.3549 36.544 59.3549 32.6451ZM46 43.0322C40.2741 43.0322 35.6129 38.371 35.6129 32.6451C35.6129 29.733 36.8223 27.0991 38.7606 25.2128L50.843 41.8284C49.3944 42.5926 47.7491 43.0322 46 43.0322ZM41.157 23.4636C42.6057 22.6976 44.2509 22.258 46 22.258C51.7259 22.258 56.3871 26.9192 56.3871 32.6451C56.3871 35.5572 55.1778 38.1911 53.2395 40.0774L41.157 23.4636Z" fill="#CDA274"/>
</svg>
