<svg width="86" height="86" viewBox="0 0 86 86" fill="none" xmlns="http://www.w3.org/2000/svg">
<path d="M58.7669 75.9667H55.9003V68.8V14.3333C55.9003 14.0467 55.7569 13.6167 55.6136 13.4733L51.4569 1.00333C51.3136 0.43 50.7403 0 50.1669 0C49.5936 0 49.0203 0.43 48.8769 1.00333L44.7203 13.4733C44.5769 13.76 44.4336 14.0467 44.4336 14.3333V68.8V84.5667C44.4336 85.4267 45.0069 86 45.8669 86H54.4669C55.3269 86 55.9003 85.4267 55.9003 84.5667V78.8333H60.2003C61.0603 78.8333 61.6336 78.26 61.6336 77.4V34.4H58.7669V75.9667ZM47.3003 15.7667H53.0336V67.3667H47.3003V15.7667ZM50.1669 6.02L52.4603 12.9H47.8736L50.1669 6.02ZM53.0336 83.1333H47.3003V70.2333H53.0336V83.1333Z" fill="#CDA274"/>
<path d="M84.5662 0H68.7995C67.9395 0 67.3662 0.573333 67.3662 1.43333V84.5667C67.3662 85.4267 67.9395 86 68.7995 86H84.5662C85.4262 86 85.9995 85.4267 85.9995 84.5667V1.43333C85.9995 0.573333 85.4262 0 84.5662 0ZM83.1329 83.1333H70.2329V73.1H77.3995V70.2333H70.2329V58.7667H77.3995V55.9H70.2329V44.4333H77.3995V41.5667H70.2329V30.1H77.3995V27.2333H70.2329V15.7667H77.3995V12.9H70.2329V2.86667H83.1329V83.1333Z" fill="#CDA274"/>
<path d="M20.0667 14.3334C9.03 14.3334 0 23.3634 0 34.4C0 42.14 4.44333 49.1634 11.4667 52.46V63.0667V70.2334C11.4667 71.0934 12.04 71.6667 12.9 71.6667H18.6333V75.9667H21.5V71.6667H27.2333C28.0933 71.6667 28.6667 71.0934 28.6667 70.2334V63.0667V52.46C35.69 49.1634 40.1333 42.14 40.1333 34.4C40.1333 23.3634 31.1033 14.3334 20.0667 14.3334ZM25.8 68.8H14.3333V64.5H25.8V68.8ZM26.66 50.31C26.0867 50.4534 25.8 51.0267 25.8 51.6V61.6334H14.3333V58.7667H21.5V55.9H14.3333V51.6C14.3333 51.0267 14.0467 50.4534 13.4733 50.31C7.02333 47.5867 2.86667 41.28 2.86667 34.4C2.86667 24.94 10.6067 17.2 20.0667 17.2C29.5267 17.2 37.2667 24.94 37.2667 34.4C37.2667 41.28 33.11 47.5867 26.66 50.31Z" fill="#CDA274"/>
<path d="M23.3637 26.23L20.067 29.5266L16.7703 26.23L14.7637 28.2366L18.6337 32.1066V47.3H21.5003V32.1066L25.3703 28.2366L23.3637 26.23Z" fill="#CDA274"/>
</svg>
